<svg width="24" height="24" viewBox="0 0 24 24" fill="none" xmlns="http://www.w3.org/2000/svg">
<g clip-path="url(#clip0_111_1238)">
<path d="M4.88862 3.44553C4.88829 4.0938 4.63046 4.71539 4.17183 5.17356C3.71321 5.63173 3.09136 5.88894 2.44309 5.88862C1.79482 5.88829 1.17323 5.63046 0.715057 5.17183C0.25689 4.71321 -0.00032383 4.09136 3.0598e-07 3.44309C0.000324441 2.79482 0.25816 2.17323 0.716786 1.71506C1.17541 1.25689 1.79726 0.999676 2.44553 1C3.0938 1.00032 3.71539 1.25816 4.17356 1.71679C4.63173 2.17541 4.88894 2.79726 4.88862 3.44553ZM4.96195 7.69863H0.0733295V23H4.96195V7.69863ZM12.686 7.69863H7.82179V23H12.6371V14.9704C12.6371 10.4974 18.4668 10.0818 18.4668 14.9704V23H23.2943V13.3083C23.2943 5.76762 14.6659 6.04872 12.6371 9.75185L12.686 7.69863Z" fill="#181818"/>
</g>
<defs>
<clipPath id="clip0_111_1238">
<rect width="24" height="24" fill="white"/>
</clipPath>
</defs>
</svg>
