<svg width="24" height="24" viewBox="0 0 24 24" fill="none" xmlns="http://www.w3.org/2000/svg">
<path d="M21.6777 5.89937C20.9407 6.22538 20.1591 6.43949 19.3588 6.53461C20.2024 6.03012 20.8337 5.23616 21.1352 4.30067C20.3436 4.77179 19.4757 5.10195 18.5711 5.28055C17.9635 4.63043 17.1581 4.19927 16.2801 4.0541C15.4022 3.90892 14.5009 4.05787 13.7163 4.47778C12.9318 4.89769 12.3079 5.56504 11.9418 6.37608C11.5756 7.18712 11.4877 8.09641 11.6916 8.96259C10.0863 8.88212 8.5158 8.46495 7.08214 7.73814C5.64848 7.01133 4.38369 5.99113 3.3699 4.74379C3.01105 5.36015 2.82248 6.06082 2.82349 6.77403C2.82349 8.17386 3.53595 9.41053 4.61913 10.1346C3.97811 10.1144 3.3512 9.94129 2.79066 9.62968V9.67988C2.79086 10.6122 3.11346 11.5157 3.70378 12.2373C4.2941 12.9589 5.11581 13.4541 6.02958 13.639C5.43452 13.8002 4.81057 13.824 4.20497 13.7085C4.46261 14.511 4.96475 15.2128 5.64109 15.7157C6.31744 16.2185 7.13412 16.4973 7.97679 16.513C7.13928 17.1707 6.18035 17.657 5.15481 17.9439C4.12927 18.2308 3.05724 18.3127 2 18.185C3.84555 19.3719 5.99395 20.002 8.18821 20C15.615 20 19.6765 13.8475 19.6765 8.51175C19.6765 8.33797 19.6716 8.16227 19.6639 7.99043C20.4544 7.41908 21.1367 6.71129 21.6787 5.90034L21.6777 5.89937Z" fill="#181818"/>
</svg>
