<svg width="24" height="24" viewBox="0 0 24 24" fill="none" xmlns="http://www.w3.org/2000/svg">
<path d="M23.4516 4.9976C24 7.136 24 11.6 24 11.6C24 11.6 24 16.064 23.4516 18.2024C23.1468 19.3844 22.2552 20.3144 21.126 20.6288C19.0752 21.2 12 21.2 12 21.2C12 21.2 4.9284 21.2 2.874 20.6288C1.74 20.3096 0.8496 19.3808 0.5484 18.2024C3.57628e-08 16.064 0 11.6 0 11.6C0 11.6 3.57628e-08 7.136 0.5484 4.9976C0.8532 3.8156 1.7448 2.8856 2.874 2.5712C4.9284 2 12 2 12 2C12 2 19.0752 2 21.126 2.5712C22.26 2.8904 23.1504 3.8192 23.4516 4.9976ZM9.6 15.8L16.8 11.6L9.6 7.4V15.8Z" fill="#181818"/>
</svg>
